<svg width="37" height="37" viewBox="0 0 37 37" fill="none" xmlns="http://www.w3.org/2000/svg">
<path d="M13.875 17.3438H7.06469C7.27958 15.9127 7.79057 14.5422 8.56503 13.3198C9.33948 12.0974 10.3604 11.05 11.5625 10.2444L13.6322 8.85687L12.3603 6.9375L10.2906 8.325C8.54848 9.48596 7.11985 11.059 6.13152 12.9046C5.14318 14.7501 4.6257 16.8111 4.625 18.9047V26.5938C4.625 27.2071 4.86864 27.7953 5.30232 28.2289C5.73599 28.6626 6.32419 28.9062 6.9375 28.9062H13.875C14.4883 28.9062 15.0765 28.6626 15.5102 28.2289C15.9439 27.7953 16.1875 27.2071 16.1875 26.5938V19.6562C16.1875 19.0429 15.9439 18.4547 15.5102 18.0211C15.0765 17.5874 14.4883 17.3438 13.875 17.3438ZM30.0625 17.3438H23.2522C23.4671 15.9127 23.9781 14.5422 24.7525 13.3198C25.527 12.0974 26.5479 11.05 27.75 10.2444L29.8197 8.85687L28.5594 6.9375L26.4781 8.325C24.736 9.48596 23.3074 11.059 22.319 12.9046C21.3307 14.7501 20.8132 16.8111 20.8125 18.9047V26.5938C20.8125 27.2071 21.0561 27.7953 21.4898 28.2289C21.9235 28.6626 22.5117 28.9062 23.125 28.9062H30.0625C30.6758 28.9062 31.264 28.6626 31.6977 28.2289C32.1314 27.7953 32.375 27.2071 32.375 26.5938V19.6562C32.375 19.0429 32.1314 18.4547 31.6977 18.0211C31.264 17.5874 30.6758 17.3438 30.0625 17.3438Z" fill="#012F6D"/>
</svg>
